<mxfile host="Electron" agent="Mozilla/5.0 (Windows NT 10.0; Win64; x64) AppleWebKit/537.36 (KHTML, like Gecko) draw.io/28.2.5 Chrome/138.0.7204.251 Electron/37.6.1 Safari/537.36" version="28.2.5">
  <diagram name="第 1 页" id="Ko-EZqCOvVL0mjjenT1L">
    <mxGraphModel dx="1000" dy="695" grid="0" gridSize="10" guides="1" tooltips="1" connect="1" arrows="1" fold="1" page="1" pageScale="1" pageWidth="827" pageHeight="1169" background="none" math="0" shadow="0">
      <root>
        <mxCell id="0" />
        <mxCell id="1" parent="0" />
        <mxCell id="JyAN_obIHdgHUJqG_vVm-1" value="" style="ellipse;html=1;shape=endState;fillColor=#ffe6cc;strokeColor=#d79b00;" vertex="1" parent="1">
          <mxGeometry x="399" y="773" width="30" height="30" as="geometry" />
        </mxCell>
        <mxCell id="JyAN_obIHdgHUJqG_vVm-2" value="" style="ellipse;html=1;shape=startState;fillColor=#ffe6cc;strokeColor=#d79b00;" vertex="1" parent="1">
          <mxGeometry x="399" y="180" width="30" height="30" as="geometry" />
        </mxCell>
        <mxCell id="JyAN_obIHdgHUJqG_vVm-3" value="" style="edgeStyle=orthogonalEdgeStyle;html=1;verticalAlign=bottom;endArrow=open;endSize=8;strokeColor=#d6b656;rounded=0;fillColor=#fff2cc;" edge="1" source="JyAN_obIHdgHUJqG_vVm-2" parent="1" target="JyAN_obIHdgHUJqG_vVm-4">
          <mxGeometry relative="1" as="geometry">
            <mxPoint x="414" y="270" as="targetPoint" />
          </mxGeometry>
        </mxCell>
        <mxCell id="JyAN_obIHdgHUJqG_vVm-4" value="&lt;font style=&quot;color: rgb(66, 66, 66); font-size: 10px;&quot;&gt;填写用户名,邮箱地址,密码&lt;/font&gt;" style="rounded=1;whiteSpace=wrap;html=1;fillColor=#ffe6cc;strokeColor=#d79b00;" vertex="1" parent="1">
          <mxGeometry x="354" y="257" width="120" height="43" as="geometry" />
        </mxCell>
        <mxCell id="JyAN_obIHdgHUJqG_vVm-5" value="&lt;font style=&quot;color: rgb(66, 66, 66); font-size: 10px;&quot;&gt;点击发送验证码&lt;/font&gt;" style="rounded=1;whiteSpace=wrap;html=1;fillColor=#ffe6cc;strokeColor=#d79b00;" vertex="1" parent="1">
          <mxGeometry x="354" y="354" width="120" height="40" as="geometry" />
        </mxCell>
        <mxCell id="JyAN_obIHdgHUJqG_vVm-6" value="" style="edgeStyle=orthogonalEdgeStyle;html=1;verticalAlign=bottom;endArrow=open;endSize=8;strokeColor=#d6b656;rounded=0;fillColor=#fff2cc;entryX=0.5;entryY=0;entryDx=0;entryDy=0;exitX=0.5;exitY=1;exitDx=0;exitDy=0;" edge="1" parent="1" source="JyAN_obIHdgHUJqG_vVm-4" target="JyAN_obIHdgHUJqG_vVm-5">
          <mxGeometry relative="1" as="geometry">
            <mxPoint x="409" y="324" as="targetPoint" />
            <mxPoint x="409" y="250" as="sourcePoint" />
          </mxGeometry>
        </mxCell>
        <mxCell id="JyAN_obIHdgHUJqG_vVm-7" value="" style="edgeStyle=orthogonalEdgeStyle;html=1;verticalAlign=bottom;endArrow=open;endSize=8;strokeColor=#d6b656;rounded=0;fillColor=#fff2cc;entryX=0.5;entryY=0;entryDx=0;entryDy=0;" edge="1" parent="1" source="JyAN_obIHdgHUJqG_vVm-5" target="JyAN_obIHdgHUJqG_vVm-8">
          <mxGeometry relative="1" as="geometry">
            <mxPoint x="413.71" y="624" as="targetPoint" />
            <mxPoint x="413.71" y="514" as="sourcePoint" />
          </mxGeometry>
        </mxCell>
        <mxCell id="JyAN_obIHdgHUJqG_vVm-8" value="&lt;font style=&quot;font-size: 9px; color: rgb(66, 66, 66);&quot;&gt;邮箱是否合法&lt;/font&gt;" style="rhombus;whiteSpace=wrap;html=1;fillColor=#ffe6cc;strokeColor=#d79b00;" vertex="1" parent="1">
          <mxGeometry x="374" y="467" width="80" height="80" as="geometry" />
        </mxCell>
        <mxCell id="JyAN_obIHdgHUJqG_vVm-9" value="" style="edgeStyle=segmentEdgeStyle;endArrow=classic;html=1;curved=0;rounded=0;endSize=8;startSize=8;fillColor=#fff2cc;strokeColor=#d6b656;exitX=0;exitY=0.5;exitDx=0;exitDy=0;entryX=0.5;entryY=1;entryDx=0;entryDy=0;" edge="1" parent="1" source="JyAN_obIHdgHUJqG_vVm-8" target="JyAN_obIHdgHUJqG_vVm-10">
          <mxGeometry width="50" height="50" relative="1" as="geometry">
            <mxPoint x="484" y="514" as="sourcePoint" />
            <mxPoint x="237" y="403" as="targetPoint" />
          </mxGeometry>
        </mxCell>
        <mxCell id="JyAN_obIHdgHUJqG_vVm-10" value="&lt;span style=&quot;font-size: 10px;&quot;&gt;&lt;font style=&quot;color: rgb(58, 58, 58);&quot;&gt;报错弹窗&lt;/font&gt;&lt;/span&gt;" style="rounded=1;whiteSpace=wrap;html=1;fillColor=#f8cecc;strokeColor=#b85450;" vertex="1" parent="1">
          <mxGeometry x="216" y="354" width="120" height="40" as="geometry" />
        </mxCell>
        <mxCell id="JyAN_obIHdgHUJqG_vVm-11" value="" style="edgeStyle=orthogonalEdgeStyle;html=1;verticalAlign=bottom;endArrow=open;endSize=8;strokeColor=#d6b656;rounded=0;fillColor=#fff2cc;exitX=0.5;exitY=1;exitDx=0;exitDy=0;entryX=0.504;entryY=0.414;entryDx=0;entryDy=0;entryPerimeter=0;" edge="1" parent="1" source="JyAN_obIHdgHUJqG_vVm-8" target="JyAN_obIHdgHUJqG_vVm-12">
          <mxGeometry relative="1" as="geometry">
            <mxPoint x="414" y="638" as="targetPoint" />
            <mxPoint x="413" y="567" as="sourcePoint" />
          </mxGeometry>
        </mxCell>
        <mxCell id="JyAN_obIHdgHUJqG_vVm-12" value="" style="shape=line;html=1;strokeWidth=6;strokeColor=#d79b00;fillColor=#ffe6cc;" vertex="1" parent="1">
          <mxGeometry x="313" y="605" width="200" height="10" as="geometry" />
        </mxCell>
        <mxCell id="JyAN_obIHdgHUJqG_vVm-13" value="" style="edgeStyle=orthogonalEdgeStyle;html=1;verticalAlign=bottom;endArrow=open;endSize=8;strokeColor=#d79b00;rounded=0;fillColor=#ffe6cc;exitX=0.131;exitY=0.553;exitDx=0;exitDy=0;exitPerimeter=0;entryX=0.5;entryY=0;entryDx=0;entryDy=0;" edge="1" source="JyAN_obIHdgHUJqG_vVm-12" parent="1" target="JyAN_obIHdgHUJqG_vVm-14">
          <mxGeometry relative="1" as="geometry">
            <mxPoint x="339" y="747.32" as="targetPoint" />
            <mxPoint x="340.79999999999995" y="629" as="sourcePoint" />
          </mxGeometry>
        </mxCell>
        <mxCell id="JyAN_obIHdgHUJqG_vVm-14" value="&lt;font color=&quot;#424242&quot;&gt;&lt;span style=&quot;font-size: 10px;&quot;&gt;数据库添加数据&lt;/span&gt;&lt;/font&gt;" style="rounded=1;whiteSpace=wrap;html=1;fillColor=#ffe6cc;strokeColor=#d79b00;" vertex="1" parent="1">
          <mxGeometry x="290" y="687" width="97" height="29" as="geometry" />
        </mxCell>
        <mxCell id="JyAN_obIHdgHUJqG_vVm-15" value="" style="edgeStyle=orthogonalEdgeStyle;html=1;verticalAlign=bottom;endArrow=open;endSize=8;strokeColor=#d79b00;rounded=0;fillColor=#ffe6cc;exitX=0.886;exitY=0.567;exitDx=0;exitDy=0;exitPerimeter=0;entryX=0.5;entryY=0;entryDx=0;entryDy=0;" edge="1" parent="1" target="JyAN_obIHdgHUJqG_vVm-16" source="JyAN_obIHdgHUJqG_vVm-12">
          <mxGeometry relative="1" as="geometry">
            <mxPoint x="491" y="756" as="targetPoint" />
            <mxPoint x="490" y="615" as="sourcePoint" />
          </mxGeometry>
        </mxCell>
        <mxCell id="JyAN_obIHdgHUJqG_vVm-16" value="&lt;font color=&quot;#424242&quot;&gt;&lt;span style=&quot;font-size: 10px;&quot;&gt;切换成登录状态&lt;/span&gt;&lt;/font&gt;" style="rounded=1;whiteSpace=wrap;html=1;fillColor=#ffe6cc;strokeColor=#d79b00;" vertex="1" parent="1">
          <mxGeometry x="442" y="688" width="97" height="29" as="geometry" />
        </mxCell>
        <mxCell id="JyAN_obIHdgHUJqG_vVm-18" value="" style="endArrow=classic;html=1;rounded=0;fillColor=#ffe6cc;strokeColor=#d79b00;entryX=0;entryY=0.5;entryDx=0;entryDy=0;exitX=0.5;exitY=1;exitDx=0;exitDy=0;" edge="1" parent="1" source="JyAN_obIHdgHUJqG_vVm-14" target="JyAN_obIHdgHUJqG_vVm-1">
          <mxGeometry width="50" height="50" relative="1" as="geometry">
            <mxPoint x="265" y="830" as="sourcePoint" />
            <mxPoint x="315" y="780" as="targetPoint" />
          </mxGeometry>
        </mxCell>
        <mxCell id="JyAN_obIHdgHUJqG_vVm-19" value="" style="endArrow=classic;html=1;rounded=0;fillColor=#ffe6cc;strokeColor=#d79b00;entryX=1;entryY=0.5;entryDx=0;entryDy=0;exitX=0.5;exitY=1;exitDx=0;exitDy=0;" edge="1" parent="1" source="JyAN_obIHdgHUJqG_vVm-16" target="JyAN_obIHdgHUJqG_vVm-1">
          <mxGeometry width="50" height="50" relative="1" as="geometry">
            <mxPoint x="448" y="735" as="sourcePoint" />
            <mxPoint x="508" y="807" as="targetPoint" />
          </mxGeometry>
        </mxCell>
      </root>
    </mxGraphModel>
  </diagram>
</mxfile>
